{"title":"Sushi Girl 2012 BRRip 720p x264 AAC - PRiSTiNE [P2PDL]","uid":8117969,"size":574869098,"categoryP":"video","categoryS":"hd___movies","magnet":"?xt=urn:btih:9e2826d2d2d4b10af4635fff05499155677a3554&amp;dn=Sushi+Girl+2012+BRRip+720p+x264+AAC+-+PRiSTiNE+%5BP2PDL%5D&amp;tr=udp%3A%2F%2Ftracker.openbittorrent.com%3A80&amp;tr=udp%3A%2F%2Fopen.demonii.com%3A1337&amp;tr=udp%3A%2F%2Ftracker.coppersurfer.tk%3A6969&amp;tr=udp%3A%2F%2Fexodus.desync.com%3A6969","seeders":1,"leechers":0,"uploader":"Vitamin_X","files":-1,"time":1360334511,"description":"_________________________  Visit us at _________________________\n  &lt;a href=&quot;\nhttp://p2pdl.com&quot; rel=&quot;nofollow&quot; target=&quot;_NEW&quot;&gt;\nhttp://p2pdl.com&lt;/a&gt;  ____________________________ &lt;a href=&quot; http://p2pdl.com&quot; rel=&quot;nofollow&quot; target=&quot;_NEW&quot;&gt; http://p2pdl.com&lt;/a&gt;\n\n &lt;a href=&quot;\nhttp://www.shotpix.com/images/22173520714971343988.png&quot; rel=&quot;nofollow&quot; target=&quot;_NEW&quot;&gt;\nhttp://www.shotpix.com/images/22173520714971343988.png&lt;/a&gt;\n\nSushi Girl 2012 BRRip 720p x264 AAC - PRiSTiNE [P2PDL]\n\t\t\t\t\nGenre: Action | Crime | Thriller\nFish has spent six years in jail. Six years alone. Six years keeping \nhis mouth shut about the robbery, about the other men involved. \nThe night he is released, the four men he protected with silence \ncelebrate his freedom with a congratulatory dinner. \nThe meal is a lavish array of sushi, served off the naked body \nof a beautiful young woman. The sushi girl seems catatonic, trained to \nignore everything in the room, even if things become dangerous. \nSure enough, the four unwieldy thieves can't help but open old \nwounds in an attempt to find their missing loot.\nDirector: Kern Saxton\nStars: Tony Todd, Noah Hathaway, James Duval\nRated: PG 13\n\nInfo:  &lt;a href=&quot;\nhttp://www.imdb.com/title/tt1606339/&quot; rel=&quot;nofollow&quot; target=&quot;_NEW&quot;&gt;\nhttp://www.imdb.com/title/tt1606339/&lt;/a&gt;\n &lt;a href=&quot;\nhttp://www.themoviedb.org/movie/60540-sushi-girl/&quot; rel=&quot;nofollow&quot; target=&quot;_NEW&quot;&gt;\nhttp://www.themoviedb.org/movie/60540-sushi-girl/&lt;/a&gt;\n\n\n\nGeneral\nFormat                         : MPEG-4\nFormat profile                 : Base Media / Version 2\nCodec ID                       : mp42\nFile size                      : 542 MiB\nDuration                       : 1h 38mn\nOverall bit rate mode          : Variable\nOverall bit rate               : 766 Kbps\n\nSource                         : 720p.BluRay.X264-LCHD (Thanks)\n\nVideo\nFormat                         : AVC\nBit rate mode                  : Variable\nBit rate                       : 680 Kbps\nWidth                          : 1 280 pixels\nHeight                         : 544 pixels\nDisplay aspect ratio           : 2.35:1\nFrame rate mode                : Variable\nFrame rate                     : 23.976 fps\nStream size                    : 481 MiB (89%)\nWriting library                : x264 core 120\n\nAudio\nID                             : 2\nFormat                         : AAC\nBit rate                       : 79.9 Kbps\nChannel(s)                     : 2 channels\nChannel positions              : Front: L R\nSampling rate                  : 48.0 KHz\nStream size                    : 56.6 MiB (10%)\nLanguage                       : English\n\nSubtitle                       : Yes ( English)\n\n\nScreens:\n &lt;a href=&quot;\nhttp://www.shotpix.com/images/94472678425065682645.jpg&quot; rel=&quot;nofollow&quot; target=&quot;_NEW&quot;&gt;\nhttp://www.shotpix.com/images/94472678425065682645.jpg&lt;/a&gt; &lt;a href=&quot;\nhttp://www.shotpix.com/images/35310636015687862224.jpg&quot; rel=&quot;nofollow&quot; target=&quot;_NEW&quot;&gt;\nhttp://www.shotpix.com/images/35310636015687862224.jpg&lt;/a&gt; &lt;a href=&quot;\nhttp://www.shotpix.com/images/29397410925188264587.jpg&quot; rel=&quot;nofollow&quot; target=&quot;_NEW&quot;&gt;\nhttp://www.shotpix.com/images/29397410925188264587.jpg&lt;/a&gt; &lt;a href=&quot;\nhttp://www.shotpix.com/images/48150915748098344868.jpg&quot; rel=&quot;nofollow&quot; target=&quot;_NEW&quot;&gt;\nhttp://www.shotpix.com/images/48150915748098344868.jpg&lt;/a&gt; &lt;a href=&quot;\nhttp://www.shotpix.com/images/11449143664464672973.jpg&quot; rel=&quot;nofollow&quot; target=&quot;_NEW&quot;&gt;\nhttp://www.shotpix.com/images/11449143664464672973.jpg&lt;/a&gt;\n\nThumbs:\n &lt;a href=&quot;\nhttp://www.shotpix.com/images/08255654460252217339.jpg&quot; rel=&quot;nofollow&quot; target=&quot;_NEW&quot;&gt;\nhttp://www.shotpix.com/images/08255654460252217339.jpg&lt;/a&gt;\n\n----------------------------------------------------------------------------------------------------\n\n\nRecommend to you to use latest version of VLC player. Install K-Lite Codec Pack or shark007 codecs\nin case of any kind of problem in playback (For non-VLC Media Player users). Alternatively, install\nCore AVC codecs, the fastest decoder that there is coupled with Community Center Codec Pack and play\non Windows Media Player Classic. Check sample to be sure.\nEnjoy!\n\nGreets to: VYTO, a2zRG, MusiK_KinG, Neon, Kuroyukihime, TorDigger, Ash968, StyLishSaLH and staff members at\nExtraTorrent, TPB, H33T, KAT, 1337x, PublicHD, Ahashare, BTScene, SilverTorrent, LimeTorrents, TorrentMafia,\nP2PDL, and all others.\n\nEncoder Notes: Looking For Early Access To Anything You Can Provide DVDScr, R5, DVDR, BluRay, Direct\nAudio, Early Music Releases, Seedboxes, Dedicated Servers anything u can provide, Advance / Promo CDs/\nDVDs. If You Got anything to offer contact me at &quot;&lt;a class=&quot;__cf_email__&quot; href=&quot;/cdn-cgi/l/email-protection&quot; data-cfemail=&quot;7101031631190402195f121e1c&quot;&gt;[email&amp;#160;protected]&lt;/a&gt;&lt;script cf-hash='f9e31' type=&quot;text/javascript&quot;&gt;\n/* &lt;![CDATA[ */!function(){try{var t=&quot;currentScript&quot;in document?document.currentScript:function(){for(var t=document.getElementsByTagName(&quot;script&quot;),e=t.length;e--;)if(t[e].getAttribute(&quot;cf-hash&quot;))return t[e]}();if(t&amp;&amp;t.previousSibling){var e,r,n,i,c=t.previousSibling,a=c.getAttribute(&quot;data-cfemail&quot;);if(a){for(e=&quot;&quot;,r=parseInt(a.substr(0,2),16),n=2;a.length-n;n+=2)i=parseInt(a.substr(n,2),16)^r,e+=String.fromCharCode(i);e=document.createTextNode(e),c.parentNode.replaceChild(e,c)}}}catch(u){}}();/* ]]&gt; */&lt;/script&gt;&quot;.","torrent":{"xt":"urn:btih:9e2826d2d2d4b10af4635fff05499155677a3554","amp;dn":"Sushi+Girl+2012+BRRip+720p+x264+AAC+-+PRiSTiNE+%5BP2PDL%5D","amp;tr":["udp%3A%2F%2Ftracker.openbittorrent.com%3A80","udp%3A%2F%2Fopen.demonii.com%3A1337","udp%3A%2F%2Ftracker.coppersurfer.tk%3A6969","udp%3A%2F%2Fexodus.desync.com%3A6969"],"infoHash":"9e2826d2d2d4b10af4635fff05499155677a3554","infoHashBuffer":{"type":"Buffer","data":[158,40,38,210,210,212,177,10,244,99,95,255,5,73,145,85,103,122,53,84]},"announce":[],"urlList":[]}}